<?xml version="1.0" standalone="no"?>
<!DOCTYPE svg PUBLIC "-//W3C//DTD SVG 20010904//EN"
 "http://www.w3.org/TR/2001/REC-SVG-20010904/DTD/svg10.dtd">
<svg version="1.0" xmlns="http://www.w3.org/2000/svg"
 width="260.000000pt" height="260.000000pt" viewBox="0 0 260.000000 260.000000"
 preserveAspectRatio="xMidYMid meet">
<metadata>
Created by potrace 1.14, written by Peter Selinger 2001-2017
</metadata>
<g transform="translate(0.000000,260.000000) scale(0.100000,-0.100000)"
fill="#000000" stroke="none">
<path d="M1290 2296 c-89 -23 -169 -95 -185 -165 l-6 -27 -69 34 c-58 29 -80
35 -137 35 -84 -1 -121 -16 -220 -91 -141 -106 -262 -176 -406 -236 -89 -36
-156 -118 -157 -190 0 -15 12 -50 27 -77 21 -39 37 -54 80 -75 48 -24 62 -26
136 -22 118 8 284 70 473 179 l42 23 53 -42 c79 -60 102 -83 129 -122 13 -19
34 -44 47 -55 13 -11 30 -40 37 -65 24 -83 2 -140 -67 -170 -91 -40 -163 -28
-347 58 -237 111 -446 124 -533 34 -27 -29 -53 -93 -51 -127 1 -11 2 -28 3
-37 3 -50 91 -109 242 -163 108 -38 210 -97 272 -158 29 -28 89 -110 132 -180
53 -85 103 -151 148 -195 91 -89 85 -84 147 -123 113 -70 193 -101 345 -135
67 -14 290 -13 370 2 223 43 396 151 539 337 118 155 170 322 169 547 0 126
-8 189 -34 294 -71 279 -177 404 -537 629 -67 42 -124 77 -127 77 -2 0 -38 20
-79 45 -42 25 -78 45 -80 45 -3 0 -37 19 -78 43 -125 74 -200 94 -278 73z"/>
</g>
</svg>
